# xmcd
#
# Track frame offsets:
#	150
#	34992
#	57607
#	69490
#	97600
#	109177
#	124015
#	141615
#	167847
#	192034
#	208495
#
# Disc length: 3083 seconds
#
# Revision: 2
# Processed by: cddbd v1.4b42PL0 Copyright (c) Steve Scherf et al.
# Submitted via: audiograbber 1.80
#
DISCID=a80c090b
DTITLE=Blind Mississippi Morris and Brad Webb - Back Porch Blues
DYEAR=1900
DGENRE=
TTITLE0=Juke
TTITLE1=This Morning Before Sunrise
TTITLE2=When We Gone
TTITLE3=3 Time Loser
TTITLE4=Harporama
TTITLE5=Working Mule
TTITLE6=Cherry Picker
TTITLE7=Mysterious Woman Blues
TTITLE8=Bossy Woman
TTITLE9=Ole Black Neena
TTITLE10=Sunday Morning
EXTD=
EXTT0=
EXTT1=
EXTT2=
EXTT3=
EXTT4=
EXTT5=
EXTT6=
EXTT7=
EXTT8=
EXTT9=
EXTT10=
PLAYORDER=
